<mxfile host="65bd71144e">
    <diagram id="tonlX9R-bke1wJFCAjmI" name="Page-1">
        <mxGraphModel dx="1758" dy="620" grid="1" gridSize="10" guides="1" tooltips="1" connect="1" arrows="1" fold="1" page="1" pageScale="1" pageWidth="850" pageHeight="1100" math="0" shadow="0">
            <root>
                <mxCell id="0"/>
                <mxCell id="1" parent="0"/>
                <mxCell id="167" value="" style="group" vertex="1" connectable="0" parent="1">
                    <mxGeometry x="-700" y="160" width="592.86" height="310" as="geometry"/>
                </mxCell>
                <mxCell id="52" value="&lt;b&gt;&lt;font&gt;VCN&lt;/font&gt;&lt;/b&gt;" style="whiteSpace=wrap;html=1;strokeWidth=2;dashed=1;align=left;fontFamily=Oracle Sans;verticalAlign=top;fillColor=none;fontColor=#AE562C;strokeColor=#AE562C;perimeterSpacing=0;fontSize=12;spacingLeft=5;" parent="167" vertex="1">
                    <mxGeometry y="30" width="580" height="280" as="geometry"/>
                </mxCell>
                <mxCell id="53" value="" style="shape=image;verticalLabelPosition=bottom;verticalAlign=top;imageAspect=0;aspect=fixed;image=data:image/svg+xml,PHN2ZyB4bWxucz0iaHR0cDovL3d3dy53My5vcmcvMjAwMC9zdmciIHhtbG5zOnhsaW5rPSJodHRwOi8vd3d3LnczLm9yZy8xOTk5L3hsaW5rIiB2ZXJzaW9uPSIxLjEiIGlkPSJMYXllcl8xIiB4PSIwcHgiIHk9IjBweCIgdmlld0JveD0iMCAwIDQzLjUgNDIiIHN0eWxlPSJlbmFibGUtYmFja2dyb3VuZDpuZXcgMCAwIDQzLjUgNDI7IiB4bWw6c3BhY2U9InByZXNlcnZlIiB3aWR0aD0iNDMuNSIgaGVpZ2h0PSI0MiI+JiN4YTs8Zz4mI3hhOwk8Zz4mI3hhOwkJPHBhdGggc3R5bGU9ImZpbGw6I0ZGRkZGRjsiIGQ9Ik0zMS4yLDQxLjVjLTIuOCwwLTUuMy0yLTUuOS00LjhoLTcuMWMtMC42LDIuNy0zLDQuOC01LjksNC44Yy0zLjMsMC02LTIuNy02LTYmIzEwOyYjOTsmIzk7JiM5O2MwLTIuMSwxLjItNC4xLDMtNS4ybC0yLjItNi43Yy0wLjIsMC0wLjQsMC0wLjYsMGMtMy4zLDAtNi0yLjctNi02YzAtMy4zLDIuNy02LDYtNmMxLjUsMCwyLjksMC41LDQsMS42TDE2LjMsOSYjMTA7JiM5OyYjOTsmIzk7Yy0wLjMtMC44LTAuNS0xLjYtMC41LTIuNWMwLTMuMywyLjctNiw2LTZzNiwyLjcsNiw2YzAsMC44LTAuMiwxLjctMC41LDIuNWw1LjcsNC4yYzEuMS0xLDIuNS0xLjYsNC0xLjZjMy4zLDAsNiwyLjcsNiw2JiMxMDsmIzk7JiM5OyYjOTtzLTIuNyw2LTYsNmMtMC4yLDAtMC40LDAtMC42LDBsLTIuMiw2LjdjMS44LDEuMSwzLDMuMSwzLDUuMkMzNy4yLDM4LjgsMzQuNSw0MS41LDMxLjIsNDEuNXoiLz4mI3hhOwkJPHBhdGggc3R5bGU9ImZpbGw6I0ZGRkZGRjsiIGQ9Ik0yMS43LDFjMywwLDUuNSwyLjUsNS41LDUuNWMwLDAuOS0wLjIsMS44LTAuNywyLjZsNi40LDQuN2MxLTEuMSwyLjQtMS43LDQtMS43JiMxMDsmIzk7JiM5OyYjOTtjMywwLDUuNSwyLjUsNS41LDUuNWMwLDMtMi41LDUuNS01LjUsNS41Yy0wLjMsMC0wLjcsMC0xLTAuMWwtMi41LDcuNWMxLjgsMC45LDMuMSwyLjgsMy4xLDVjMCwzLTIuNSw1LjUtNS41LDUuNSYjMTA7JiM5OyYjOTsmIzk7Yy0yLjgsMC01LjEtMi4xLTUuNS00LjhoLTcuOWMtMC40LDIuNy0yLjcsNC44LTUuNSw0LjhjLTMsMC01LjUtMi41LTUuNS01LjVjMC0yLjIsMS4zLTQuMSwzLjEtNUw3LjUsMjNjLTAuMywwLjEtMC43LDAuMS0xLDAuMSYjMTA7JiM5OyYjOTsmIzk7Yy0zLDAtNS41LTIuNS01LjUtNS41czIuNS01LjUsNS41LTUuNWMxLjYsMCwzLDAuNyw0LDEuN2w2LjQtNC43Yy0wLjQtMC44LTAuNy0xLjctMC43LTIuNkMxNi4yLDMuNSwxOC43LDEsMjEuNywxIE0yMS43LDAmIzEwOyYjOTsmIzk7JiM5O2MtMy42LDAtNi41LDIuOS02LjUsNi41YzAsMC44LDAuMSwxLjYsMC40LDIuM2wtNS4xLDMuN2MtMS4xLTAuOS0yLjYtMS40LTQtMS40QzIuOSwxMS4xLDAsMTQsMCwxNy42czIuOSw2LjUsNi41LDYuNSYjMTA7JiM5OyYjOTsmIzk7YzAuMSwwLDAuMiwwLDAuMywwbDEuOSw2Yy0xLjgsMS4yLTIuOSwzLjItMi45LDUuNGMwLDMuNiwyLjksNi41LDYuNSw2LjVjMi45LDAsNS41LTIsNi4zLTQuOGg2LjNjMC44LDIuOCwzLjMsNC44LDYuMyw0LjgmIzEwOyYjOTsmIzk7JiM5O2MzLjYsMCw2LjUtMi45LDYuNS02LjVjMC0yLjItMS4xLTQuMi0yLjktNS40bDEuOS02YzAuMSwwLDAuMiwwLDAuMywwYzMuNiwwLDYuNS0yLjksNi41LTYuNWMwLTMuNi0yLjktNi41LTYuNS02LjUmIzEwOyYjOTsmIzk7JiM5O2MtMS41LDAtMi45LDAuNS00LjEsMS40bC01LjEtMy43YzAuMy0wLjcsMC40LTEuNSwwLjQtMi4zQzI4LjMsMi45LDI1LjMsMCwyMS43LDBMMjEuNywweiIvPiYjeGE7CTwvZz4mI3hhOwk8Zz4mI3hhOwkJPHBhdGggc3R5bGU9ImZpbGw6I0JCNTAxQzsiIGQ9Ik0zNywxMi4xYy0xLjYsMC0zLDAuNy00LDEuN2wtNi40LTQuN2MwLjQtMC44LDAuNy0xLjcsMC43LTIuNmMwLTMtMi41LTUuNS01LjUtNS41JiMxMDsmIzk7JiM5OyYjOTtzLTUuNSwyLjUtNS41LDUuNWMwLDAuOSwwLjIsMS44LDAuNywyLjZsLTYuNCw0LjdjLTEtMS0yLjQtMS43LTQtMS43Yy0zLDAtNS41LDIuNS01LjUsNS41czIuNSw1LjUsNS41LDUuNWMwLjMsMCwwLjcsMCwxLTAuMSYjMTA7JiM5OyYjOTsmIzk7bDIuNCw3LjVjLTEuOCwwLjktMy4xLDIuOC0zLjEsNWMwLDMsMi41LDUuNSw1LjUsNS41YzIuOCwwLDUuMS0yLjEsNS41LTQuOGg3LjljMC40LDIuNywyLjcsNC44LDUuNSw0LjhjMywwLDUuNS0yLjUsNS41LTUuNSYjMTA7JiM5OyYjOTsmIzk7YzAtMi4yLTEuMy00LjEtMy4xLTVMMzYsMjNjMC4zLDAuMSwwLjcsMC4xLDEsMC4xYzMsMCw1LjUtMi41LDUuNS01LjVTNDAsMTIuMSwzNywxMi4xeiBNMzEuMiwzOS41Yy0yLjIsMC00LTEuOC00LTQmIzEwOyYjOTsmIzk7JiM5O2MwLTIuMiwxLjgtNCw0LTRzNCwxLjgsNCw0QzM1LjIsMzcuNywzMy40LDM5LjUsMzEuMiwzOS41eiBNMTcuOCwzNC44Yy0wLjItMS4zLTAuOC0yLjQtMS43LTMuM2wzLTQuMmMwLjgsMC40LDEuNywwLjcsMi42LDAuNyYjMTA7JiM5OyYjOTsmIzk7YzAuOSwwLDEuOC0wLjIsMi42LTAuN2wzLDQuMmMtMC45LDAuOC0xLjUsMi0xLjcsMy4zSDE3Ljh6IE04LjMsMzUuNWMwLTIuMiwxLjgtNCw0LTRzNCwxLjgsNCw0YzAsMi4yLTEuOCw0LTQsNCYjMTA7JiM5OyYjOTsmIzk7UzguMywzNy43LDguMywzNS41eiBNNi41LDEzLjVjMi4yLDAsNCwxLjgsNCw0cy0xLjgsNC00LDRzLTQtMS44LTQtNFM0LjMsMTMuNSw2LjUsMTMuNXogTTE3LjcsNi41YzAtMi4yLDEuOC00LDQtNHM0LDEuOCw0LDQmIzEwOyYjOTsmIzk7JiM5O3MtMS44LDQtNCw0UzE3LjcsOC43LDE3LjcsNi41eiBNMzEuNiwxOC41bC00LjksMS42Yy0wLjgtMS42LTIuNC0yLjgtNC4yLTMuMVYxMmMxLjMtMC4yLDIuNC0wLjgsMy4yLTEuN2w2LjQsNC43JiMxMDsmIzk7JiM5OyYjOTtjLTAuNCwwLjgtMC43LDEuNy0wLjcsMi42QzMxLjUsMTcuOSwzMS41LDE4LjIsMzEuNiwxOC41eiBNMjUuOCwyMi41YzAsMi4yLTEuOCw0LTQsNHMtNC0xLjgtNC00czEuOC00LDQtNFMyNS44LDIwLjIsMjUuOCwyMi41eiYjMTA7JiM5OyYjOTsmIzk7IE0yMSwxMlYxN2MtMS45LDAuMy0zLjUsMS40LTQuMiwzLjFsLTQuOS0xLjZjMC4xLTAuMywwLjEtMC42LDAuMS0xYzAtMC45LTAuMi0xLjgtMC43LTIuNmw2LjQtNC43QzE4LjYsMTEuMiwxOS43LDExLjgsMjEsMTJ6JiMxMDsmIzk7JiM5OyYjOTsgTTExLjUsMTkuOWw0LjksMS42Yy0wLjEsMC4zLTAuMSwwLjYtMC4xLDFjMCwxLjYsMC43LDMsMS43LDRsLTMsNC4yYy0wLjgtMC40LTEuNy0wLjctMi42LTAuN2MtMC4zLDAtMC43LDAtMSwwLjFsLTIuNC03LjUmIzEwOyYjOTsmIzk7JiM5O0MxMCwyMiwxMC45LDIxLjEsMTEuNSwxOS45eiBNMzEuMiwzMGMtMC45LDAtMS44LDAuMi0yLjYsMC43bC0zLTQuMmMxLjEtMSwxLjctMi40LDEuNy00YzAtMC4zLDAtMC43LTAuMS0xbDQuOS0xLjYmIzEwOyYjOTsmIzk7JiM5O2MwLjUsMS4xLDEuNSwyLDIuNiwyLjZsLTIuNSw3LjVDMzEuOCwzMCwzMS41LDMwLDMxLjIsMzB6IE0zMywxNy42YzAtMi4yLDEuOC00LDQtNHM0LDEuOCw0LDRzLTEuOCw0LTQsNFMzMywxOS44LDMzLDE3LjZ6Ii8+JiN4YTsJPC9nPiYjeGE7PC9nPiYjeGE7PC9zdmc+;dashed=1;dashPattern=1 1;strokeColor=#bb511c;strokeWidth=3;fontColor=#AE562C;fontFamily=Helvetica;fontSize=12;fillColor=#FCFBFA;" parent="167" vertex="1">
                    <mxGeometry x="530" width="62.86" height="60" as="geometry"/>
                </mxCell>
                <mxCell id="54" value="" style="group" parent="167" vertex="1" connectable="0">
                    <mxGeometry x="15" y="20" width="550" height="270" as="geometry"/>
                </mxCell>
                <mxCell id="55" value="&lt;b&gt;Subnet&lt;/b&gt;&lt;br&gt;&lt;font color=&quot;#312d2a&quot;&gt;10.0.0.1/24&lt;/font&gt;" style="whiteSpace=wrap;html=1;strokeWidth=1;dashed=1;align=left;fontFamily=Oracle Sans;verticalAlign=top;fillColor=none;fontColor=#AE562C;perimeterSpacing=0;strokeColor=#AE562C;fontSize=12;spacingLeft=5;" parent="54" vertex="1">
                    <mxGeometry y="51.08108108108108" width="550" height="218.9189189189189" as="geometry"/>
                </mxCell>
                <mxCell id="56" value="" style="shape=image;verticalLabelPosition=bottom;verticalAlign=top;imageAspect=0;aspect=fixed;image=data:image/svg+xml,PHN2ZyB4bWxucz0iaHR0cDovL3d3dy53My5vcmcvMjAwMC9zdmciIHhtbG5zOnhsaW5rPSJodHRwOi8vd3d3LnczLm9yZy8xOTk5L3hsaW5rIiB2ZXJzaW9uPSIxLjEiIGlkPSJMYXllcl8xIiB4PSIwcHgiIHk9IjBweCIgdmlld0JveD0iMCAwIDMyLjM5OTk5NzcxMTE4MTY0IDQyLjE5OTk5Njk0ODI0MjE5IiBzdHlsZT0iZW5hYmxlLWJhY2tncm91bmQ6bmV3IDAgMCAzMi4zIDQyLjI7IiB4bWw6c3BhY2U9InByZXNlcnZlIiB3aWR0aD0iMzIuMzk5OTk3NzExMTgxNjQiIGhlaWdodD0iNDIuMTk5OTk2OTQ4MjQyMTkiPiYjeGE7PGc+JiN4YTsJPGc+JiN4YTsJCTxwYXRoIHN0eWxlPSJmaWxsOiNGRkZGRkY7IiBkPSJNMTUuOCw0MS41QzgsMzguNiw0LjMsMzMuNiwyLjUsMjkuOGMtMi00LjMtMi03LjktMi04LjFWNy4zbDE1LjctNi43bDE1LjYsNi43djE0LjUmIzEwOyYjOTsmIzk7JiM5O2MwLDAuNi0wLjIsMTQuMi0xNS4xLDE5LjdsLTAuNCwwLjJMMTUuOCw0MS41eiIvPiYjeGE7CQk8cGF0aCBzdHlsZT0iZmlsbDojRkZGRkZGOyIgZD0iTTE2LjIsMS4xbDE1LjEsNi41djE0LjJjMCwwLjYtMC4yLDEzLjgtMTQuOCwxOS4ybC0wLjMsMC4xTDE2LDQxQzguMywzOC4yLDQuNywzMy4zLDMsMjkuNiYjMTA7JiM5OyYjOTsmIzk7Yy0xLjktNC4xLTItNy43LTItNy44VjcuNkwxNi4yLDEuMSBNMTYuMiwwbC0wLjQsMC4yTDAuNiw2LjdMMCw2Ljl2MC43djE0LjJjMCwwLjIsMCwzLjksMi4xLDguM2MxLjgsMy44LDUuNiw5LDEzLjYsMTEuOSYjMTA7JiM5OyYjOTsmIzk7bDAuMywwLjFsMC4zLDAuMWwwLjMtMC4xbDAuMy0wLjFjMTUuMy01LjYsMTUuNS0xOS42LDE1LjUtMjAuMlY3LjZWNi45bC0wLjYtMC4zTDE2LjYsMC4yTDE2LjIsMEwxNi4yLDB6Ii8+JiN4YTsJPC9nPiYjeGE7CTxnPiYjeGE7CQk8cGF0aCBzdHlsZT0iZmlsbDpub25lOyIgZD0iTTIuNSw4LjZ2MTMuMmMwLDAuMSwwLDMuNCwxLjgsNy4yYzIuMyw0LjksNi4zLDguNCwxMS45LDEwLjVjMTMuNC01LjEsMTMuNi0xNy4yLDEzLjYtMTcuN1Y4LjYmIzEwOyYjOTsmIzk7JiM5O0wxNi4yLDIuN0wyLjUsOC42eiBNMTYuMSwyOC4zSDd2LTEuNWg5LjFWMjguM3ogTTE2LjEsMjEuNUg3VjIwaDkuMVYyMS41eiBNMTYuMSwxNC4ySDd2LTEuNWg5LjFWMTQuMnogTTIwLjIsMTIuN2wxLjIsMS4ybDMtMyYjMTA7JiM5OyYjOTsmIzk7bDEsMWwtNCw0bC0yLjItMi4yTDIwLjIsMTIuN3ogTTI0LjgsMjIuMmwtMSwxbC0xLjUtMS41bC0xLjUsMS41bC0xLTFsMS41LTEuNWwtMS41LTEuNWwxLTFsMS41LDEuNWwxLjUtMS41bDEsMWwtMS41LDEuNSYjMTA7JiM5OyYjOTsmIzk7TDI0LjgsMjIuMnogTTIwLjIsMjYuOGwxLjIsMS4ybDMtM2wxLDFsLTQsNGwtMi4yLTIuMkwyMC4yLDI2Ljh6Ii8+JiN4YTsJCTxwYXRoIHN0eWxlPSJmaWxsOiNCQjUwMUM7IiBkPSJNMTYuMiwxLjFMMSw3LjZ2MTQuMmMwLDAuMSwwLDMuNywyLDcuOGMxLjcsMy43LDUuNCw4LjYsMTMsMTEuNGwwLjMsMC4xbDAuMy0wLjEmIzEwOyYjOTsmIzk7JiM5O2MxNC42LTUuNCwxNC44LTE4LjcsMTQuOC0xOS4yVjcuNkwxNi4yLDEuMXogTTI5LjgsMjEuOGMwLDAuNS0wLjIsMTIuNi0xMy42LDE3LjdDMTAuNiwzNy40LDYuNiwzMy45LDQuMywyOSYjMTA7JiM5OyYjOTsmIzk7Yy0xLjgtMy45LTEuOC03LjEtMS44LTcuMlY4LjZsMTMuNy01LjlsMTMuNiw1LjlWMjEuOHoiLz4mI3hhOwkJPHJlY3QgeD0iNyIgeT0iMTIuNyIgc3R5bGU9ImZpbGw6I0JCNTAxQzsiIHdpZHRoPSI5LjEiIGhlaWdodD0iMS41Ii8+JiN4YTsJCTxwb2x5Z29uIHN0eWxlPSJmaWxsOiNCQjUwMUM7IiBwb2ludHM9IjI1LjQsMTIgMjQuMywxMSAyMS40LDEzLjkgMjAuMiwxMi43IDE5LjEsMTMuOCAyMS40LDE2ICYjOTsmIzk7Ii8+JiN4YTsJCTxyZWN0IHg9IjciIHk9IjIwIiBzdHlsZT0iZmlsbDojQkI1MDFDOyIgd2lkdGg9IjkuMSIgaGVpZ2h0PSIxLjUiLz4mI3hhOwkJPHBvbHlnb24gc3R5bGU9ImZpbGw6I0JCNTAxQzsiIHBvaW50cz0iMjMuOCwxOC4xIDIyLjMsMTkuNyAyMC43LDE4LjEgMTkuNywxOS4yIDIxLjIsMjAuNyAxOS43LDIyLjIgMjAuNywyMy4zIDIyLjMsMjEuOCAmIzEwOyYjOTsmIzk7JiM5OzIzLjgsMjMuMyAyNC44LDIyLjIgMjMuMywyMC43IDI0LjgsMTkuMiAmIzk7JiM5OyIvPiYjeGE7CQk8cmVjdCB4PSI3IiB5PSIyNi44IiBzdHlsZT0iZmlsbDojQkI1MDFDOyIgd2lkdGg9IjkuMSIgaGVpZ2h0PSIxLjUiLz4mI3hhOwkJPHBvbHlnb24gc3R5bGU9ImZpbGw6I0JCNTAxQzsiIHBvaW50cz0iMjUuNCwyNi4xIDI0LjMsMjUuMSAyMS40LDI4IDIwLjIsMjYuOCAxOS4xLDI3LjkgMjEuNCwzMC4xICYjOTsmIzk7Ii8+JiN4YTsJPC9nPiYjeGE7PC9nPiYjeGE7PC9zdmc+;dashed=1;dashPattern=1 1;strokeColor=#bb511c;strokeWidth=3;fontColor=#AE562C;fontFamily=Helvetica;fontSize=12;fillColor=#FCFBFA;" parent="54" vertex="1">
                    <mxGeometry x="410" y="19.897826086956524" width="31.16" height="40.89" as="geometry"/>
                </mxCell>
                <mxCell id="57" value="" style="shape=image;verticalLabelPosition=bottom;verticalAlign=top;imageAspect=0;aspect=fixed;image=data:image/svg+xml,PHN2ZyB4bWxucz0iaHR0cDovL3d3dy53My5vcmcvMjAwMC9zdmciIHhtbG5zOnhsaW5rPSJodHRwOi8vd3d3LnczLm9yZy8xOTk5L3hsaW5rIiB2ZXJzaW9uPSIxLjEiIGlkPSJMYXllcl8xIiB4PSIwcHgiIHk9IjBweCIgdmlld0JveD0iMCAwIDQyIDQyIiBzdHlsZT0iZW5hYmxlLWJhY2tncm91bmQ6bmV3IDAgMCA0MiA0MjsiIHhtbDpzcGFjZT0icHJlc2VydmUiIHdpZHRoPSI0MiIgaGVpZ2h0PSI0MiI+JiN4YTs8Zz4mI3hhOwk8Zz4mI3hhOwkJPHJlY3QgeD0iMC41IiB5PSIwLjUiIHN0eWxlPSJmaWxsOiNGRkZGRkY7IiB3aWR0aD0iNDEiIGhlaWdodD0iNDEiLz4mI3hhOwkJPHBhdGggc3R5bGU9ImZpbGw6I0ZGRkZGRjsiIGQ9Ik00MSwxdjQwSDFWMUg0MSBNNDIsMGgtMUgxSDB2MXY0MHYxaDFoNDBoMXYtMVYxVjBMNDIsMHoiLz4mI3hhOwk8L2c+JiN4YTsJPGc+JiN4YTsJCTxwYXRoIHN0eWxlPSJmaWxsOiNCQjUwMUM7IiBkPSJNMSwxdjQwaDQwVjFIMXogTTM5LjUsMTMuOEgxMy42VjIuNWgyNS45VjEzLjh6IE0yLjUsMjguMmg5LjZ2MTEuNEgyLjVWMjguMnogTTEyLjEsMi41djExLjRIMi41JiMxMDsmIzk7JiM5OyYjOTtWMi41SDEyLjF6IE0xMi4xLDE1LjN2MTEuNEgyLjVWMTUuM0gxMi4xeiBNMTMuNiwzOS41VjI4LjJoMjUuOXYxMS40SDEzLjZ6IE0xMy42LDI2LjdWMTUuM2gyNS45djExLjRIMTMuNnoiLz4mI3hhOwkJPHBvbHlnb24gc3R5bGU9ImZpbGw6I0JCNTAxQzsiIHBvaW50cz0iMTUsMTIuMyAxNi43LDEyLjMgMTcuNiwxMC42IDE4LjUsMTIuMyAyMC4xLDEyLjMgMTguNiw5LjYgMjAsNy4xIDE4LjQsNy4xIDE3LjYsOC43ICYjMTA7JiM5OyYjOTsmIzk7MTYuNyw3LjEgMTUuMSw3LjEgMTYuNiw5LjYgJiM5OyYjOTsiLz4mI3hhOwkJPHJlY3QgeD0iMjAuOSIgeT0iMTEuMSIgc3R5bGU9ImZpbGw6I0JCNTAxQzsiIHdpZHRoPSIxLjQiIGhlaWdodD0iMS4yIi8+JiN4YTsJCTxwb2x5Z29uIHN0eWxlPSJmaWxsOiNCQjUwMUM7IiBwb2ludHM9IjI1LDEyLjMgMjUuOSwxMC42IDI2LjgsMTIuMyAyOC40LDEyLjMgMjYuOCw5LjYgMjguMyw3LjEgMjYuOCw3LjEgMjUuOSw4LjcgMjUsNy4xICYjMTA7JiM5OyYjOTsmIzk7MjMuNCw3LjEgMjQuOSw5LjYgMjMuNCwxMi4zICYjOTsmIzk7Ii8+JiN4YTsJCTxyZWN0IHg9IjI4LjkiIHk9IjExLjEiIHN0eWxlPSJmaWxsOiNCQjUwMUM7IiB3aWR0aD0iMS40IiBoZWlnaHQ9IjEuMiIvPiYjeGE7CQk8cG9seWdvbiBzdHlsZT0iZmlsbDojQkI1MDFDOyIgcG9pbnRzPSIzMi43LDEyLjMgMzMuNiwxMC42IDM0LjYsMTIuMyAzNi4xLDEyLjMgMzQuNiw5LjYgMzYsNy4xIDM0LjUsNy4xIDMzLjYsOC43IDMyLjcsNy4xICYjMTA7JiM5OyYjOTsmIzk7MzEuMiw3LjEgMzIuNiw5LjYgMzEuMSwxMi4zICYjOTsmIzk7Ii8+JiN4YTsJCTxyZWN0IHg9IjM2LjYiIHk9IjExLjEiIHN0eWxlPSJmaWxsOiNCQjUwMUM7IiB3aWR0aD0iMS40IiBoZWlnaHQ9IjEuMiIvPiYjeGE7CQk8cG9seWdvbiBzdHlsZT0iZmlsbDojQkI1MDFDOyIgcG9pbnRzPSIyMCwyMC4xIDE4LjQsMjAuMSAxNy42LDIxLjcgMTYuNywyMC4xIDE1LjEsMjAuMSAxNi42LDIyLjYgMTUsMjUuMyAxNi43LDI1LjMgMTcuNiwyMy42ICYjMTA7JiM5OyYjOTsmIzk7MTguNSwyNS4zIDIwLjEsMjUuMyAxOC42LDIyLjYgJiM5OyYjOTsiLz4mI3hhOwkJPHJlY3QgeD0iMjAuOSIgeT0iMjQiIHN0eWxlPSJmaWxsOiNCQjUwMUM7IiB3aWR0aD0iMS40IiBoZWlnaHQ9IjEuMiIvPiYjeGE7CQk8cG9seWdvbiBzdHlsZT0iZmlsbDojQkI1MDFDOyIgcG9pbnRzPSIyOC4zLDIwLjEgMjYuOCwyMC4xIDI1LjksMjEuNyAyNSwyMC4xIDIzLjQsMjAuMSAyNC45LDIyLjYgMjMuNCwyNS4zIDI1LDI1LjMgMjUuOSwyMy42ICYjMTA7JiM5OyYjOTsmIzk7MjYuOCwyNS4zIDI4LjQsMjUuMyAyNi44LDIyLjYgJiM5OyYjOTsiLz4mI3hhOwkJPHJlY3QgeD0iMjguOSIgeT0iMjQiIHN0eWxlPSJmaWxsOiNCQjUwMUM7IiB3aWR0aD0iMS40IiBoZWlnaHQ9IjEuMiIvPiYjeGE7CQk8cG9seWdvbiBzdHlsZT0iZmlsbDojQkI1MDFDOyIgcG9pbnRzPSIzNiwyMC4xIDM0LjUsMjAuMSAzMy42LDIxLjcgMzIuNywyMC4xIDMxLjIsMjAuMSAzMi42LDIyLjYgMzEuMSwyNS4zIDMyLjcsMjUuMyAmIzEwOyYjOTsmIzk7JiM5OzMzLjYsMjMuNiAzNC42LDI1LjMgMzYuMSwyNS4zIDM0LjYsMjIuNiAmIzk7JiM5OyIvPiYjeGE7CQk8cmVjdCB4PSIzNi42IiB5PSIyNCIgc3R5bGU9ImZpbGw6I0JCNTAxQzsiIHdpZHRoPSIxLjQiIGhlaWdodD0iMS4yIi8+JiN4YTsJCTxwb2x5Z29uIHN0eWxlPSJmaWxsOiNCQjUwMUM7IiBwb2ludHM9IjIwLDMyLjkgMTguNCwzMi45IDE3LjYsMzQuNCAxNi43LDMyLjkgMTUuMSwzMi45IDE2LjYsMzUuMyAxNSwzOCAxNi43LDM4IDE3LjYsMzYuMyAmIzEwOyYjOTsmIzk7JiM5OzE4LjUsMzggMjAuMSwzOCAxOC42LDM1LjQgJiM5OyYjOTsiLz4mI3hhOwkJPHJlY3QgeD0iMjAuOSIgeT0iMzYuOCIgc3R5bGU9ImZpbGw6I0JCNTAxQzsiIHdpZHRoPSIxLjQiIGhlaWdodD0iMS4yIi8+JiN4YTsJCTxwb2x5Z29uIHN0eWxlPSJmaWxsOiNCQjUwMUM7IiBwb2ludHM9IjI4LjMsMzIuOSAyNi44LDMyLjkgMjUuOSwzNC40IDI1LDMyLjkgMjMuNCwzMi45IDI0LjksMzUuMyAyMy40LDM4IDI1LDM4IDI1LjksMzYuMyAmIzEwOyYjOTsmIzk7JiM5OzI2LjgsMzggMjguNCwzOCAyNi44LDM1LjQgJiM5OyYjOTsiLz4mI3hhOwkJPHJlY3QgeD0iMjguOSIgeT0iMzYuOCIgc3R5bGU9ImZpbGw6I0JCNTAxQzsiIHdpZHRoPSIxLjQiIGhlaWdodD0iMS4yIi8+JiN4YTsJCTxwb2x5Z29uIHN0eWxlPSJmaWxsOiNCQjUwMUM7IiBwb2ludHM9IjM2LDMyLjkgMzQuNSwzMi45IDMzLjYsMzQuNCAzMi43LDMyLjkgMzEuMiwzMi45IDMyLjYsMzUuMyAzMS4xLDM4IDMyLjcsMzggMzMuNiwzNi4zICYjMTA7JiM5OyYjOTsmIzk7MzQuNiwzOCAzNi4xLDM4IDM0LjYsMzUuNCAmIzk7JiM5OyIvPiYjeGE7CQk8cmVjdCB4PSIzNi42IiB5PSIzNi44IiBzdHlsZT0iZmlsbDojQkI1MDFDOyIgd2lkdGg9IjEuNCIgaGVpZ2h0PSIxLjIiLz4mI3hhOwk8L2c+JiN4YTs8L2c+JiN4YTs8L3N2Zz4=;fontColor=#312D2A;strokeColor=#AE562C;fontFamily=Helvetica;fontSize=12;fillColor=#FCFBFA;" parent="54" vertex="1">
                    <mxGeometry x="460" y="23.47826086956522" width="34.79" height="34.79" as="geometry"/>
                </mxCell>
                <mxCell id="59" value="" style="group" parent="54" vertex="1" connectable="0">
                    <mxGeometry x="116" y="117.54" width="55" height="80" as="geometry"/>
                </mxCell>
                <mxCell id="60" style="vsdxID=53;fillColor=none;gradientColor=none;strokeColor=none;spacingTop=-3;spacingBottom=-3;spacingLeft=-3;spacingRight=-3;points=[];labelBackgroundColor=none;rounded=0;html=1;whiteSpace=wrap;" parent="59" vertex="1">
                    <mxGeometry width="55" height="51.69230769230769" as="geometry"/>
                </mxCell>
                <mxCell id="61" style="vsdxID=54;fillColor=none;gradientColor=none;strokeColor=none;spacingTop=-3;spacingBottom=-3;spacingLeft=-3;spacingRight=-3;points=[];labelBackgroundColor=none;rounded=0;html=1;whiteSpace=wrap;" parent="60" vertex="1">
                    <mxGeometry width="55" height="51.69230769230769" as="geometry"/>
                </mxCell>
                <mxCell id="62" style="vsdxID=55;fillColor=#FFFFFF;gradientColor=none;shape=stencil(lZPRDoIwDEW/Zq9LWUHCs+J/EAVZRCATFP/eYYdsAzW+td2922mzMtxey6zNmYBrp5pzfpfHrmS4Y0LIusyV7HTEMGW4LRqVn1TT10fK22xUjtGluY03DOSLOEajScCDCknC482rsif9oVdkCEggeIjGEfgWGASVwChMmsQchVGgqzBpEvLQfrWStUUJDuKb+QMhuHgz8ERnteDyTnDWVBzcVTiNvnFnCN/o9Cyi2CUEFy8Ab3xWB+hLfOJVxFnuI3+AnA1L6kEsG/HJB1zOxkNfBf39Hf/V62D++4WsKlod+9zfFV2iPcP0CQ==);strokeColor=none;spacingTop=-3;spacingBottom=-3;spacingLeft=-3;spacingRight=-3;points=[];labelBackgroundColor=none;rounded=0;html=1;whiteSpace=wrap;" parent="61" vertex="1">
                    <mxGeometry x="0.6547619047619048" y="0.6153846153846155" width="53.6904761904762" height="50.461538461538474" as="geometry"/>
                </mxCell>
                <mxCell id="63" style="vsdxID=56;fillColor=#FFFFFF;gradientColor=none;shape=stencil(lZXRdoIwDIafprc9aUMpvXb6Hp6JgzMmHsSNvf1gLbQNCHpX4h/88iehDHe34njNmYRb29Sf+U95aguGb0zK8lLkTdn2J4Z7hrtz3eQfTX2/nOzz9Tgoh9NX/T28obN5BjmqIUvCr41Ijtl/4GD17/fGJgiXoXhiXIYgKdBJJ9IcR5ELJVy6SIdzkQulPMHwz6vyEsIGCRN+JlZpgxRfgFEEN6jJV5ClhDfwCqlqEbgvR8S8VE95e5c0wdU8lTFu77cmtIprEdMGIs+v9GPYIGG5GZQ1SBCzHstZPXI2LDhzCZdnkIzB5sy+qt/aCXihxbBuWaZiyyD2C6hZdAghdmp9YSAi21wWYHTyREInb+J3EQHANro5Sh41R8U7TeQLGy2Ih56BQgXbPJWCVPPcenj9c9thDNcp/U5O3Ry5Um5EjErsXPjorLu5Nrr9wV8E57Kq7D0S/k4vjj5kLx3c/wE=);strokeColor=none;spacingTop=-3;spacingBottom=-3;spacingLeft=-3;spacingRight=-3;points=[];labelBackgroundColor=none;rounded=0;html=1;whiteSpace=wrap;" parent="61" vertex="1">
                    <mxGeometry width="55" height="51.69230769230769" as="geometry"/>
                </mxCell>
                <mxCell id="64" style="vsdxID=57;fillColor=none;gradientColor=none;strokeColor=none;spacingTop=-3;spacingBottom=-3;spacingLeft=-3;spacingRight=-3;points=[];labelBackgroundColor=none;rounded=0;html=1;whiteSpace=wrap;" parent="60" vertex="1">
                    <mxGeometry x="1.3095238095238095" y="1.230769230769231" width="52.38095238095239" height="49.23076923076923" as="geometry"/>
                </mxCell>
                <mxCell id="65" style="vsdxID=58;fillColor=#2d5967;gradientColor=none;shape=stencil(lZXLcoMwDEW/xlvGWDzidZr8R6YhhSmFDCEt+ftCbbAkB+Lu/LgyR/IVFrC/ladrIZS89V37WfxU574U8CaUqpqy6Kp+HAk4CNhf2q746Np7czbz62lSTqOv9ns6YTBxOo3SeIpS8mFW5N/saMR11SBxEqlkXft+78zJsdmMI62tOsZyOSgyfdipsrtAd2H5drpOJgmWzra4JIXSO0qFsOcVKSkaqgNQyVO4scZ5RgCZnBPqXSRjSukYONRMueQBXAAOY6OETv+84B6kno9bIBVF1LnLm175AL774KX9XniVGTtzNVzJ38so88puneRSSr2UxihbqK20nCqsszw9hwWvuzCImkV5wmkpKlKE2QQFhPkEBdiVhEPyhoPFWesdB5uUfstxfcDlIwx01+z6EwqKFUF/rgCf/jtgHLj//aWqa/Nc4H3+PoxL5m2Bwy8=);strokeColor=none;spacingTop=-3;spacingBottom=-3;spacingLeft=-3;spacingRight=-3;points=[];labelBackgroundColor=none;rounded=0;html=1;whiteSpace=wrap;" parent="64" vertex="1">
                    <mxGeometry width="52.38095238095239" height="49.23076923076923" as="geometry"/>
                </mxCell>
                <mxCell id="66" style="vsdxID=59;fillColor=#2d5967;gradientColor=none;shape=stencil(pZJbDsIgFERXwy+hQBW/a91Hk1IhIjQUX7sXcmNsNaWx/s1wz32EDGLVoJpeIkqG4N1J3nQbFGJ7RKm2SnodokKsRqzqnJdH7y62Bd83iUzq7K5pwh36SOqg5AGuIOAPgBptR+iruArOoCvB7PosOv0BjkUxpTdYlPOjdxyXf/GCY7qd57/u+ZVfuGeZj+Idl04bA2kb1z/jFZ8gmqx+Ag==);strokeColor=none;spacingTop=-3;spacingBottom=-3;spacingLeft=-3;spacingRight=-3;points=[];labelBackgroundColor=none;rounded=0;html=1;whiteSpace=wrap;" parent="64" vertex="1">
                    <mxGeometry x="7.202380952380952" y="31.38461538461538" width="37.976190476190474" height="10.461538461538462" as="geometry"/>
                </mxCell>
                <mxCell id="67" style="vsdxID=60;fillColor=#2d5967;gradientColor=none;shape=stencil(jVLRDoMgDPwaXg2UOeezc/9hJk4ypwZ107+fpCRClxnf2nLH9eCYzIa66BUDPoyme6qPLseaySsD0G2tjB7XismcyazqjHqYbmpL7PvCIm316t72hhl5MbcU4Au2gmN/Q+x9MggWeJwk0Vk4gggZfAYyWGAjgcNIinGDUxql6Z7yxnADgEheQmV/OzfioW5MZHfNWoUkFCVWiVF/JRkijtokJv2ng9+t6Iv/s0l+tdHt4QSsxRadSjcNJs8/p1FbRxhTmX8B);strokeColor=none;spacingTop=-3;spacingBottom=-3;spacingLeft=-3;spacingRight=-3;points=[];labelBackgroundColor=none;rounded=0;html=1;whiteSpace=wrap;" parent="64" vertex="1">
                    <mxGeometry x="37.32142857142857" y="35.69230769230769" width="2.619047619047619" height="2.4615384615384612" as="geometry"/>
                </mxCell>
                <mxCell id="68" style="vsdxID=61;fillColor=#2d5967;gradientColor=none;shape=stencil(pZLbDsIgEES/Zl8JZW3E51r/o0mpEBEa2nr5e0Fi2qrpRd92Z8+QCRnArJFFLYDRpnX2JK6qbCXgHhhTRgqnWj8B5oBZZZ04OtuZMu51Ecgwne0lvHCLvh0nnAcXo/eo0Od2iLBWZgDT38CETqCv4yJ4VdoZePwPHEmyGcFBSSdyp2SL/xl65avhM9Jqw0ykBQY/9NWplNaxecP7e9W8FGuK+QM=);strokeColor=none;spacingTop=-3;spacingBottom=-3;spacingLeft=-3;spacingRight=-3;points=[];labelBackgroundColor=none;rounded=0;html=1;whiteSpace=wrap;" parent="64" vertex="1">
                    <mxGeometry x="7.202380952380952" y="6.769230769230768" width="11.13095238095238" height="10.461538461538462" as="geometry"/>
                </mxCell>
                <mxCell id="69" style="vsdxID=62;fillColor=#2d5967;gradientColor=none;shape=stencil(pZJJDoMwDEVP422UxGXYU3oPJEKJmhIUoMPtm8iqCnSE7vzj920r+oBZVxetAsm73tmDOuuyrwG3IKVuauV07yvAHDCrrFN7Z4emJN0WgQzV0Z7ChAv5BOfBI/mVNKkdoUY3I3QleN/wEp2vXwSvRac/kG6YTCZwikxEH2bHLI3/M4iIJfje8HzSYsOXk34w+OIRmkobQ5kb9+ch808UUMxv);strokeColor=none;spacingTop=-3;spacingBottom=-3;spacingLeft=-3;spacingRight=-3;points=[];labelBackgroundColor=none;rounded=0;html=1;whiteSpace=wrap;" parent="64" vertex="1">
                    <mxGeometry x="20.297619047619047" y="6.769230769230768" width="11.13095238095238" height="10.461538461538462" as="geometry"/>
                </mxCell>
                <mxCell id="70" style="vsdxID=63;fillColor=#2d5967;gradientColor=none;shape=stencil(pZLbDsIgEES/Zl8JZW3E51r/o0mpEBEa2nr5e0Fi2qrpRd92Z8+QCRnArJFFLYDRpnX2JK6qbCXgHhhTRgqnWj8B5oBZZZ04OtuZMu51Ecgwne0lvHCLvh0nnAcXo/eo0Od2iLBWZgDT38CETqCv4yJ4VdoZePwPHEmyGcFBSSdyp2SL/xl65avhM9Jqw0ykBQY/9NWplNaxecP7e9W8FGuK+QM=);strokeColor=none;spacingTop=-3;spacingBottom=-3;spacingLeft=-3;spacingRight=-3;points=[];labelBackgroundColor=none;rounded=0;html=1;whiteSpace=wrap;" parent="64" vertex="1">
                    <mxGeometry x="7.202380952380952" y="19.076923076923073" width="11.13095238095238" height="10.461538461538462" as="geometry"/>
                </mxCell>
                <mxCell id="71" style="vsdxID=64;fillColor=#2d5967;gradientColor=none;shape=stencil(pZJJDoMwDEVP422UxGXYU3oPJEKJmhIUoMPtm8iqCnSE7vzj920r+oBZVxetAsm73tmDOuuyrwG3IKVuauV07yvAHDCrrFN7Z4emJN0WgQzV0Z7ChAv5BOfBI/mVNKkdoUY3I3QleN/wEp2vXwSvRac/kG6YTCZwikxEH2bHLI3/M4iIJfje8HzSYsOXk34w+OIRmkobQ5kb9+ch808UUMxv);strokeColor=none;spacingTop=-3;spacingBottom=-3;spacingLeft=-3;spacingRight=-3;points=[];labelBackgroundColor=none;rounded=0;html=1;whiteSpace=wrap;" parent="64" vertex="1">
                    <mxGeometry x="20.297619047619047" y="19.076923076923073" width="11.13095238095238" height="10.461538461538462" as="geometry"/>
                </mxCell>
                <mxCell id="72" style="vsdxID=65;fillColor=#2d5967;gradientColor=none;shape=stencil(pZJJDoMwDEVP422UxGXYU3oPJEKJmhIUoMPtm8iqCnSE7vzj920r+oBZVxetAsm73tmDOuuyrwG3IKVuauV07yvAHDCrrFN7Z4emJN0WgQzV0Z7ChAv5BOfBI/mVNKkdoUY3I3QleN/wEp2vXwSvRac/kG6YTCZwikxEH2bHLI3/M4iIJfje8HzSYsOXk34w+OIRmkobQ5kb9+ch808UUMxv);strokeColor=none;spacingTop=-3;spacingBottom=-3;spacingLeft=-3;spacingRight=-3;points=[];labelBackgroundColor=none;rounded=0;html=1;whiteSpace=wrap;" parent="64" vertex="1">
                    <mxGeometry x="33.39285714285714" y="6.769230769230768" width="11.13095238095238" height="10.461538461538462" as="geometry"/>
                </mxCell>
                <mxCell id="73" style="vsdxID=66;fillColor=#2d5967;gradientColor=none;shape=stencil(pZJJDoMwDEVP422UxGXYU3oPJEKJmhIUoMPtm8iqCnSE7vzj920r+oBZVxetAsm73tmDOuuyrwG3IKVuauV07yvAHDCrrFN7Z4emJN0WgQzV0Z7ChAv5BOfBI/mVNKkdoUY3I3QleN/wEp2vXwSvRac/kG6YTCZwikxEH2bHLI3/M4iIJfje8HzSYsOXk34w+OIRmkobQ5kb9+ch808UUMxv);strokeColor=none;spacingTop=-3;spacingBottom=-3;spacingLeft=-3;spacingRight=-3;points=[];labelBackgroundColor=none;rounded=0;html=1;whiteSpace=wrap;" parent="64" vertex="1">
                    <mxGeometry x="33.39285714285714" y="19.076923076923073" width="11.13095238095238" height="10.461538461538462" as="geometry"/>
                </mxCell>
                <mxCell id="74" value="&lt;div style=&quot;&quot;&gt;&lt;p style=&quot;margin: 0px; text-indent: 0px; direction: ltr;&quot;&gt;&lt;font style=&quot;font-size: 12px;&quot; face=&quot;Oracle Sans&quot;&gt;&lt;span style=&quot;&quot;&gt;Master&lt;/span&gt;&lt;/font&gt;&lt;/p&gt;&lt;p style=&quot;margin: 0px; text-indent: 0px; direction: ltr;&quot;&gt;&lt;font style=&quot;font-size: 12px;&quot; face=&quot;Oracle Sans&quot;&gt;&lt;span style=&quot;&quot;&gt;(&lt;/span&gt;&lt;/font&gt;&lt;span style=&quot;background-color: initial;&quot;&gt;10.0.0.197&lt;/span&gt;&lt;span style=&quot;font-family: &amp;quot;Oracle Sans&amp;quot;; background-color: initial;&quot;&gt;)&lt;/span&gt;&lt;/p&gt;&lt;/div&gt;" style="verticalAlign=middle;align=center;vsdxID=68;fillColor=none;gradientColor=none;shape=stencil(nZBLDoAgDERP0z3SIyjew0SURgSD+Lu9kMZoXLhwN9O+tukAlrNpJg1SzDH4QW/URgNYgZTkjA4UkwJUgGXng+6DX1zLfmoymdXo17xh5zmRJ6Q42BWCfc2oJfdAr+Yv+AP9Cb7OJ3H/2JG1HNGz/84klThPVCc=);strokeColor=none;spacingTop=-3;spacingBottom=-3;spacingLeft=-3;spacingRight=-3;points=[];labelBackgroundColor=none;rounded=0;html=1;whiteSpace=wrap;noLabel=0;container=0;" parent="59" vertex="1">
                    <mxGeometry x="2.62" y="60" width="49.76" height="20" as="geometry"/>
                </mxCell>
                <mxCell id="133" value="" style="group" parent="54" vertex="1" connectable="0">
                    <mxGeometry x="355" y="170.54" width="55" height="80" as="geometry"/>
                </mxCell>
                <mxCell id="134" style="vsdxID=53;fillColor=none;gradientColor=none;strokeColor=none;spacingTop=-3;spacingBottom=-3;spacingLeft=-3;spacingRight=-3;points=[];labelBackgroundColor=none;rounded=0;html=1;whiteSpace=wrap;" parent="133" vertex="1">
                    <mxGeometry width="55" height="51.69230769230769" as="geometry"/>
                </mxCell>
                <mxCell id="135" style="vsdxID=54;fillColor=none;gradientColor=none;strokeColor=none;spacingTop=-3;spacingBottom=-3;spacingLeft=-3;spacingRight=-3;points=[];labelBackgroundColor=none;rounded=0;html=1;whiteSpace=wrap;" parent="134" vertex="1">
                    <mxGeometry width="55" height="51.69230769230769" as="geometry"/>
                </mxCell>
                <mxCell id="136" style="vsdxID=55;fillColor=#FFFFFF;gradientColor=none;shape=stencil(lZPRDoIwDEW/Zq9LWUHCs+J/EAVZRCATFP/eYYdsAzW+td2922mzMtxey6zNmYBrp5pzfpfHrmS4Y0LIusyV7HTEMGW4LRqVn1TT10fK22xUjtGluY03DOSLOEajScCDCknC482rsif9oVdkCEggeIjGEfgWGASVwChMmsQchVGgqzBpEvLQfrWStUUJDuKb+QMhuHgz8ERnteDyTnDWVBzcVTiNvnFnCN/o9Cyi2CUEFy8Ab3xWB+hLfOJVxFnuI3+AnA1L6kEsG/HJB1zOxkNfBf39Hf/V62D++4WsKlod+9zfFV2iPcP0CQ==);strokeColor=none;spacingTop=-3;spacingBottom=-3;spacingLeft=-3;spacingRight=-3;points=[];labelBackgroundColor=none;rounded=0;html=1;whiteSpace=wrap;" parent="135" vertex="1">
                    <mxGeometry x="0.6547619047619048" y="0.6153846153846155" width="53.6904761904762" height="50.461538461538474" as="geometry"/>
                </mxCell>
                <mxCell id="137" style="vsdxID=56;fillColor=#FFFFFF;gradientColor=none;shape=stencil(lZXRdoIwDIafprc9aUMpvXb6Hp6JgzMmHsSNvf1gLbQNCHpX4h/88iehDHe34njNmYRb29Sf+U95aguGb0zK8lLkTdn2J4Z7hrtz3eQfTX2/nOzz9Tgoh9NX/T28obN5BjmqIUvCr41Ijtl/4GD17/fGJgiXoXhiXIYgKdBJJ9IcR5ELJVy6SIdzkQulPMHwz6vyEsIGCRN+JlZpgxRfgFEEN6jJV5ClhDfwCqlqEbgvR8S8VE95e5c0wdU8lTFu77cmtIprEdMGIs+v9GPYIGG5GZQ1SBCzHstZPXI2LDhzCZdnkIzB5sy+qt/aCXihxbBuWaZiyyD2C6hZdAghdmp9YSAi21wWYHTyREInb+J3EQHANro5Sh41R8U7TeQLGy2Ih56BQgXbPJWCVPPcenj9c9thDNcp/U5O3Ry5Um5EjErsXPjorLu5Nrr9wV8E57Kq7D0S/k4vjj5kLx3c/wE=);strokeColor=none;spacingTop=-3;spacingBottom=-3;spacingLeft=-3;spacingRight=-3;points=[];labelBackgroundColor=none;rounded=0;html=1;whiteSpace=wrap;" parent="135" vertex="1">
                    <mxGeometry width="55" height="51.69230769230769" as="geometry"/>
                </mxCell>
                <mxCell id="138" style="vsdxID=57;fillColor=none;gradientColor=none;strokeColor=none;spacingTop=-3;spacingBottom=-3;spacingLeft=-3;spacingRight=-3;points=[];labelBackgroundColor=none;rounded=0;html=1;whiteSpace=wrap;" parent="134" vertex="1">
                    <mxGeometry x="1.3095238095238095" y="1.230769230769231" width="52.38095238095239" height="49.23076923076923" as="geometry"/>
                </mxCell>
                <mxCell id="139" style="vsdxID=58;fillColor=#2d5967;gradientColor=none;shape=stencil(lZXLcoMwDEW/xlvGWDzidZr8R6YhhSmFDCEt+ftCbbAkB+Lu/LgyR/IVFrC/ladrIZS89V37WfxU574U8CaUqpqy6Kp+HAk4CNhf2q746Np7czbz62lSTqOv9ns6YTBxOo3SeIpS8mFW5N/saMR11SBxEqlkXft+78zJsdmMI62tOsZyOSgyfdipsrtAd2H5drpOJgmWzra4JIXSO0qFsOcVKSkaqgNQyVO4scZ5RgCZnBPqXSRjSukYONRMueQBXAAOY6OETv+84B6kno9bIBVF1LnLm175AL774KX9XniVGTtzNVzJ38so88puneRSSr2UxihbqK20nCqsszw9hwWvuzCImkV5wmkpKlKE2QQFhPkEBdiVhEPyhoPFWesdB5uUfstxfcDlIwx01+z6EwqKFUF/rgCf/jtgHLj//aWqa/Nc4H3+PoxL5m2Bwy8=);strokeColor=none;spacingTop=-3;spacingBottom=-3;spacingLeft=-3;spacingRight=-3;points=[];labelBackgroundColor=none;rounded=0;html=1;whiteSpace=wrap;" parent="138" vertex="1">
                    <mxGeometry width="52.38095238095239" height="49.23076923076923" as="geometry"/>
                </mxCell>
                <mxCell id="140" style="vsdxID=59;fillColor=#2d5967;gradientColor=none;shape=stencil(pZJbDsIgFERXwy+hQBW/a91Hk1IhIjQUX7sXcmNsNaWx/s1wz32EDGLVoJpeIkqG4N1J3nQbFGJ7RKm2SnodokKsRqzqnJdH7y62Bd83iUzq7K5pwh36SOqg5AGuIOAPgBptR+iruArOoCvB7PosOv0BjkUxpTdYlPOjdxyXf/GCY7qd57/u+ZVfuGeZj+Idl04bA2kb1z/jFZ8gmqx+Ag==);strokeColor=none;spacingTop=-3;spacingBottom=-3;spacingLeft=-3;spacingRight=-3;points=[];labelBackgroundColor=none;rounded=0;html=1;whiteSpace=wrap;" parent="138" vertex="1">
                    <mxGeometry x="7.202380952380952" y="31.38461538461538" width="37.976190476190474" height="10.461538461538462" as="geometry"/>
                </mxCell>
                <mxCell id="141" style="vsdxID=60;fillColor=#2d5967;gradientColor=none;shape=stencil(jVLRDoMgDPwaXg2UOeezc/9hJk4ypwZ107+fpCRClxnf2nLH9eCYzIa66BUDPoyme6qPLseaySsD0G2tjB7XismcyazqjHqYbmpL7PvCIm316t72hhl5MbcU4Au2gmN/Q+x9MggWeJwk0Vk4gggZfAYyWGAjgcNIinGDUxql6Z7yxnADgEheQmV/OzfioW5MZHfNWoUkFCVWiVF/JRkijtokJv2ng9+t6Iv/s0l+tdHt4QSsxRadSjcNJs8/p1FbRxhTmX8B);strokeColor=none;spacingTop=-3;spacingBottom=-3;spacingLeft=-3;spacingRight=-3;points=[];labelBackgroundColor=none;rounded=0;html=1;whiteSpace=wrap;" parent="138" vertex="1">
                    <mxGeometry x="37.32142857142857" y="35.69230769230769" width="2.619047619047619" height="2.4615384615384612" as="geometry"/>
                </mxCell>
                <mxCell id="142" style="vsdxID=61;fillColor=#2d5967;gradientColor=none;shape=stencil(pZLbDsIgEES/Zl8JZW3E51r/o0mpEBEa2nr5e0Fi2qrpRd92Z8+QCRnArJFFLYDRpnX2JK6qbCXgHhhTRgqnWj8B5oBZZZ04OtuZMu51Ecgwne0lvHCLvh0nnAcXo/eo0Od2iLBWZgDT38CETqCv4yJ4VdoZePwPHEmyGcFBSSdyp2SL/xl65avhM9Jqw0ykBQY/9NWplNaxecP7e9W8FGuK+QM=);strokeColor=none;spacingTop=-3;spacingBottom=-3;spacingLeft=-3;spacingRight=-3;points=[];labelBackgroundColor=none;rounded=0;html=1;whiteSpace=wrap;" parent="138" vertex="1">
                    <mxGeometry x="7.202380952380952" y="6.769230769230768" width="11.13095238095238" height="10.461538461538462" as="geometry"/>
                </mxCell>
                <mxCell id="143" style="vsdxID=62;fillColor=#2d5967;gradientColor=none;shape=stencil(pZJJDoMwDEVP422UxGXYU3oPJEKJmhIUoMPtm8iqCnSE7vzj920r+oBZVxetAsm73tmDOuuyrwG3IKVuauV07yvAHDCrrFN7Z4emJN0WgQzV0Z7ChAv5BOfBI/mVNKkdoUY3I3QleN/wEp2vXwSvRac/kG6YTCZwikxEH2bHLI3/M4iIJfje8HzSYsOXk34w+OIRmkobQ5kb9+ch808UUMxv);strokeColor=none;spacingTop=-3;spacingBottom=-3;spacingLeft=-3;spacingRight=-3;points=[];labelBackgroundColor=none;rounded=0;html=1;whiteSpace=wrap;" parent="138" vertex="1">
                    <mxGeometry x="20.297619047619047" y="6.769230769230768" width="11.13095238095238" height="10.461538461538462" as="geometry"/>
                </mxCell>
                <mxCell id="144" style="vsdxID=63;fillColor=#2d5967;gradientColor=none;shape=stencil(pZLbDsIgEES/Zl8JZW3E51r/o0mpEBEa2nr5e0Fi2qrpRd92Z8+QCRnArJFFLYDRpnX2JK6qbCXgHhhTRgqnWj8B5oBZZZ04OtuZMu51Ecgwne0lvHCLvh0nnAcXo/eo0Od2iLBWZgDT38CETqCv4yJ4VdoZePwPHEmyGcFBSSdyp2SL/xl65avhM9Jqw0ykBQY/9NWplNaxecP7e9W8FGuK+QM=);strokeColor=none;spacingTop=-3;spacingBottom=-3;spacingLeft=-3;spacingRight=-3;points=[];labelBackgroundColor=none;rounded=0;html=1;whiteSpace=wrap;" parent="138" vertex="1">
                    <mxGeometry x="7.202380952380952" y="19.076923076923073" width="11.13095238095238" height="10.461538461538462" as="geometry"/>
                </mxCell>
                <mxCell id="145" style="vsdxID=64;fillColor=#2d5967;gradientColor=none;shape=stencil(pZJJDoMwDEVP422UxGXYU3oPJEKJmhIUoMPtm8iqCnSE7vzj920r+oBZVxetAsm73tmDOuuyrwG3IKVuauV07yvAHDCrrFN7Z4emJN0WgQzV0Z7ChAv5BOfBI/mVNKkdoUY3I3QleN/wEp2vXwSvRac/kG6YTCZwikxEH2bHLI3/M4iIJfje8HzSYsOXk34w+OIRmkobQ5kb9+ch808UUMxv);strokeColor=none;spacingTop=-3;spacingBottom=-3;spacingLeft=-3;spacingRight=-3;points=[];labelBackgroundColor=none;rounded=0;html=1;whiteSpace=wrap;" parent="138" vertex="1">
                    <mxGeometry x="20.297619047619047" y="19.076923076923073" width="11.13095238095238" height="10.461538461538462" as="geometry"/>
                </mxCell>
                <mxCell id="146" style="vsdxID=65;fillColor=#2d5967;gradientColor=none;shape=stencil(pZJJDoMwDEVP422UxGXYU3oPJEKJmhIUoMPtm8iqCnSE7vzj920r+oBZVxetAsm73tmDOuuyrwG3IKVuauV07yvAHDCrrFN7Z4emJN0WgQzV0Z7ChAv5BOfBI/mVNKkdoUY3I3QleN/wEp2vXwSvRac/kG6YTCZwikxEH2bHLI3/M4iIJfje8HzSYsOXk34w+OIRmkobQ5kb9+ch808UUMxv);strokeColor=none;spacingTop=-3;spacingBottom=-3;spacingLeft=-3;spacingRight=-3;points=[];labelBackgroundColor=none;rounded=0;html=1;whiteSpace=wrap;" parent="138" vertex="1">
                    <mxGeometry x="33.39285714285714" y="6.769230769230768" width="11.13095238095238" height="10.461538461538462" as="geometry"/>
                </mxCell>
                <mxCell id="147" style="vsdxID=66;fillColor=#2d5967;gradientColor=none;shape=stencil(pZJJDoMwDEVP422UxGXYU3oPJEKJmhIUoMPtm8iqCnSE7vzj920r+oBZVxetAsm73tmDOuuyrwG3IKVuauV07yvAHDCrrFN7Z4emJN0WgQzV0Z7ChAv5BOfBI/mVNKkdoUY3I3QleN/wEp2vXwSvRac/kG6YTCZwikxEH2bHLI3/M4iIJfje8HzSYsOXk34w+OIRmkobQ5kb9+ch808UUMxv);strokeColor=none;spacingTop=-3;spacingBottom=-3;spacingLeft=-3;spacingRight=-3;points=[];labelBackgroundColor=none;rounded=0;html=1;whiteSpace=wrap;" parent="138" vertex="1">
                    <mxGeometry x="33.39285714285714" y="19.076923076923073" width="11.13095238095238" height="10.461538461538462" as="geometry"/>
                </mxCell>
                <mxCell id="148" value="&lt;div style=&quot;&quot;&gt;&lt;p style=&quot;margin: 0px; text-indent: 0px; direction: ltr;&quot;&gt;&lt;font style=&quot;background-color: initial;&quot; face=&quot;Oracle Sans&quot;&gt;Host 2&lt;/font&gt;&lt;/p&gt;&lt;p style=&quot;margin: 0px; text-indent: 0px; direction: ltr;&quot;&gt;&lt;font style=&quot;background-color: initial;&quot; face=&quot;Oracle Sans&quot;&gt;(&lt;/font&gt;&lt;span style=&quot;background-color: initial;&quot;&gt;10.0.0.135&lt;/span&gt;&lt;span style=&quot;background-color: initial; font-family: &amp;quot;Oracle Sans&amp;quot;;&quot;&gt;)&lt;/span&gt;&lt;br&gt;&lt;/p&gt;&lt;/div&gt;" style="verticalAlign=middle;align=center;vsdxID=68;fillColor=none;gradientColor=none;shape=stencil(nZBLDoAgDERP0z3SIyjew0SURgSD+Lu9kMZoXLhwN9O+tukAlrNpJg1SzDH4QW/URgNYgZTkjA4UkwJUgGXng+6DX1zLfmoymdXo17xh5zmRJ6Q42BWCfc2oJfdAr+Yv+AP9Cb7OJ3H/2JG1HNGz/84klThPVCc=);strokeColor=none;spacingTop=-3;spacingBottom=-3;spacingLeft=-3;spacingRight=-3;points=[];labelBackgroundColor=none;rounded=0;html=1;whiteSpace=wrap;noLabel=0;container=0;" parent="133" vertex="1">
                    <mxGeometry x="2.62" y="60" width="49.76" height="20" as="geometry"/>
                </mxCell>
                <mxCell id="154" value="" style="group;fontSize=12;" parent="54" vertex="1" connectable="0">
                    <mxGeometry x="195" y="70.54" width="125" height="150" as="geometry"/>
                </mxCell>
                <mxCell id="155" value="&lt;b&gt;Overlay Network&lt;/b&gt;&lt;br&gt;&lt;font color=&quot;#312d2a&quot;&gt;172.16.254.1/24&lt;/font&gt;" style="whiteSpace=wrap;html=1;strokeWidth=1;dashed=1;align=left;fontFamily=Oracle Sans;verticalAlign=top;fillColor=none;fontColor=#AE562C;perimeterSpacing=0;strokeColor=#AE562C;fontSize=12;spacingLeft=5;" parent="154" vertex="1">
                    <mxGeometry width="125" height="150" as="geometry"/>
                </mxCell>
                <mxCell id="163" value="gretab1" style="text;strokeColor=none;align=center;fillColor=none;html=1;verticalAlign=middle;whiteSpace=wrap;rounded=0;fontSize=12;" parent="154" vertex="1">
                    <mxGeometry x="65" y="39.99999999999997" width="50" height="20" as="geometry"/>
                </mxCell>
                <mxCell id="165" value="gretab2" style="text;strokeColor=none;align=center;fillColor=none;html=1;verticalAlign=middle;whiteSpace=wrap;rounded=0;fontSize=12;" parent="154" vertex="1">
                    <mxGeometry x="32.5" y="98.69" width="60" height="21.31" as="geometry"/>
                </mxCell>
                <mxCell id="117" value="" style="group" parent="54" vertex="1" connectable="0">
                    <mxGeometry x="355" y="70.54" width="55" height="80" as="geometry"/>
                </mxCell>
                <mxCell id="118" style="vsdxID=53;fillColor=none;gradientColor=none;strokeColor=none;spacingTop=-3;spacingBottom=-3;spacingLeft=-3;spacingRight=-3;points=[];labelBackgroundColor=none;rounded=0;html=1;whiteSpace=wrap;" parent="117" vertex="1">
                    <mxGeometry width="55" height="51.69230769230769" as="geometry"/>
                </mxCell>
                <mxCell id="119" style="vsdxID=54;fillColor=none;gradientColor=none;strokeColor=none;spacingTop=-3;spacingBottom=-3;spacingLeft=-3;spacingRight=-3;points=[];labelBackgroundColor=none;rounded=0;html=1;whiteSpace=wrap;" parent="118" vertex="1">
                    <mxGeometry width="55" height="51.69230769230769" as="geometry"/>
                </mxCell>
                <mxCell id="120" style="vsdxID=55;fillColor=#FFFFFF;gradientColor=none;shape=stencil(lZPRDoIwDEW/Zq9LWUHCs+J/EAVZRCATFP/eYYdsAzW+td2922mzMtxey6zNmYBrp5pzfpfHrmS4Y0LIusyV7HTEMGW4LRqVn1TT10fK22xUjtGluY03DOSLOEajScCDCknC482rsif9oVdkCEggeIjGEfgWGASVwChMmsQchVGgqzBpEvLQfrWStUUJDuKb+QMhuHgz8ERnteDyTnDWVBzcVTiNvnFnCN/o9Cyi2CUEFy8Ab3xWB+hLfOJVxFnuI3+AnA1L6kEsG/HJB1zOxkNfBf39Hf/V62D++4WsKlod+9zfFV2iPcP0CQ==);strokeColor=none;spacingTop=-3;spacingBottom=-3;spacingLeft=-3;spacingRight=-3;points=[];labelBackgroundColor=none;rounded=0;html=1;whiteSpace=wrap;" parent="119" vertex="1">
                    <mxGeometry x="0.6547619047619048" y="0.6153846153846155" width="53.6904761904762" height="50.461538461538474" as="geometry"/>
                </mxCell>
                <mxCell id="121" style="vsdxID=56;fillColor=#FFFFFF;gradientColor=none;shape=stencil(lZXRdoIwDIafprc9aUMpvXb6Hp6JgzMmHsSNvf1gLbQNCHpX4h/88iehDHe34njNmYRb29Sf+U95aguGb0zK8lLkTdn2J4Z7hrtz3eQfTX2/nOzz9Tgoh9NX/T28obN5BjmqIUvCr41Ijtl/4GD17/fGJgiXoXhiXIYgKdBJJ9IcR5ELJVy6SIdzkQulPMHwz6vyEsIGCRN+JlZpgxRfgFEEN6jJV5ClhDfwCqlqEbgvR8S8VE95e5c0wdU8lTFu77cmtIprEdMGIs+v9GPYIGG5GZQ1SBCzHstZPXI2LDhzCZdnkIzB5sy+qt/aCXihxbBuWaZiyyD2C6hZdAghdmp9YSAi21wWYHTyREInb+J3EQHANro5Sh41R8U7TeQLGy2Ih56BQgXbPJWCVPPcenj9c9thDNcp/U5O3Ry5Um5EjErsXPjorLu5Nrr9wV8E57Kq7D0S/k4vjj5kLx3c/wE=);strokeColor=none;spacingTop=-3;spacingBottom=-3;spacingLeft=-3;spacingRight=-3;points=[];labelBackgroundColor=none;rounded=0;html=1;whiteSpace=wrap;" parent="119" vertex="1">
                    <mxGeometry width="55" height="51.69230769230769" as="geometry"/>
                </mxCell>
                <mxCell id="122" style="vsdxID=57;fillColor=none;gradientColor=none;strokeColor=none;spacingTop=-3;spacingBottom=-3;spacingLeft=-3;spacingRight=-3;points=[];labelBackgroundColor=none;rounded=0;html=1;whiteSpace=wrap;" parent="118" vertex="1">
                    <mxGeometry x="1.3095238095238095" y="1.230769230769231" width="52.38095238095239" height="49.23076923076923" as="geometry"/>
                </mxCell>
                <mxCell id="123" style="vsdxID=58;fillColor=#2d5967;gradientColor=none;shape=stencil(lZXLcoMwDEW/xlvGWDzidZr8R6YhhSmFDCEt+ftCbbAkB+Lu/LgyR/IVFrC/ladrIZS89V37WfxU574U8CaUqpqy6Kp+HAk4CNhf2q746Np7czbz62lSTqOv9ns6YTBxOo3SeIpS8mFW5N/saMR11SBxEqlkXft+78zJsdmMI62tOsZyOSgyfdipsrtAd2H5drpOJgmWzra4JIXSO0qFsOcVKSkaqgNQyVO4scZ5RgCZnBPqXSRjSukYONRMueQBXAAOY6OETv+84B6kno9bIBVF1LnLm175AL774KX9XniVGTtzNVzJ38so88puneRSSr2UxihbqK20nCqsszw9hwWvuzCImkV5wmkpKlKE2QQFhPkEBdiVhEPyhoPFWesdB5uUfstxfcDlIwx01+z6EwqKFUF/rgCf/jtgHLj//aWqa/Nc4H3+PoxL5m2Bwy8=);strokeColor=none;spacingTop=-3;spacingBottom=-3;spacingLeft=-3;spacingRight=-3;points=[];labelBackgroundColor=none;rounded=0;html=1;whiteSpace=wrap;" parent="122" vertex="1">
                    <mxGeometry width="52.38095238095239" height="49.23076923076923" as="geometry"/>
                </mxCell>
                <mxCell id="124" style="vsdxID=59;fillColor=#2d5967;gradientColor=none;shape=stencil(pZJbDsIgFERXwy+hQBW/a91Hk1IhIjQUX7sXcmNsNaWx/s1wz32EDGLVoJpeIkqG4N1J3nQbFGJ7RKm2SnodokKsRqzqnJdH7y62Bd83iUzq7K5pwh36SOqg5AGuIOAPgBptR+iruArOoCvB7PosOv0BjkUxpTdYlPOjdxyXf/GCY7qd57/u+ZVfuGeZj+Idl04bA2kb1z/jFZ8gmqx+Ag==);strokeColor=none;spacingTop=-3;spacingBottom=-3;spacingLeft=-3;spacingRight=-3;points=[];labelBackgroundColor=none;rounded=0;html=1;whiteSpace=wrap;" parent="122" vertex="1">
                    <mxGeometry x="7.202380952380952" y="31.38461538461538" width="37.976190476190474" height="10.461538461538462" as="geometry"/>
                </mxCell>
                <mxCell id="125" style="vsdxID=60;fillColor=#2d5967;gradientColor=none;shape=stencil(jVLRDoMgDPwaXg2UOeezc/9hJk4ypwZ107+fpCRClxnf2nLH9eCYzIa66BUDPoyme6qPLseaySsD0G2tjB7XismcyazqjHqYbmpL7PvCIm316t72hhl5MbcU4Au2gmN/Q+x9MggWeJwk0Vk4gggZfAYyWGAjgcNIinGDUxql6Z7yxnADgEheQmV/OzfioW5MZHfNWoUkFCVWiVF/JRkijtokJv2ng9+t6Iv/s0l+tdHt4QSsxRadSjcNJs8/p1FbRxhTmX8B);strokeColor=none;spacingTop=-3;spacingBottom=-3;spacingLeft=-3;spacingRight=-3;points=[];labelBackgroundColor=none;rounded=0;html=1;whiteSpace=wrap;" parent="122" vertex="1">
                    <mxGeometry x="37.32142857142857" y="35.69230769230769" width="2.619047619047619" height="2.4615384615384612" as="geometry"/>
                </mxCell>
                <mxCell id="126" style="vsdxID=61;fillColor=#2d5967;gradientColor=none;shape=stencil(pZLbDsIgEES/Zl8JZW3E51r/o0mpEBEa2nr5e0Fi2qrpRd92Z8+QCRnArJFFLYDRpnX2JK6qbCXgHhhTRgqnWj8B5oBZZZ04OtuZMu51Ecgwne0lvHCLvh0nnAcXo/eo0Od2iLBWZgDT38CETqCv4yJ4VdoZePwPHEmyGcFBSSdyp2SL/xl65avhM9Jqw0ykBQY/9NWplNaxecP7e9W8FGuK+QM=);strokeColor=none;spacingTop=-3;spacingBottom=-3;spacingLeft=-3;spacingRight=-3;points=[];labelBackgroundColor=none;rounded=0;html=1;whiteSpace=wrap;" parent="122" vertex="1">
                    <mxGeometry x="7.202380952380952" y="6.769230769230768" width="11.13095238095238" height="10.461538461538462" as="geometry"/>
                </mxCell>
                <mxCell id="127" style="vsdxID=62;fillColor=#2d5967;gradientColor=none;shape=stencil(pZJJDoMwDEVP422UxGXYU3oPJEKJmhIUoMPtm8iqCnSE7vzj920r+oBZVxetAsm73tmDOuuyrwG3IKVuauV07yvAHDCrrFN7Z4emJN0WgQzV0Z7ChAv5BOfBI/mVNKkdoUY3I3QleN/wEp2vXwSvRac/kG6YTCZwikxEH2bHLI3/M4iIJfje8HzSYsOXk34w+OIRmkobQ5kb9+ch808UUMxv);strokeColor=none;spacingTop=-3;spacingBottom=-3;spacingLeft=-3;spacingRight=-3;points=[];labelBackgroundColor=none;rounded=0;html=1;whiteSpace=wrap;" parent="122" vertex="1">
                    <mxGeometry x="20.297619047619047" y="6.769230769230768" width="11.13095238095238" height="10.461538461538462" as="geometry"/>
                </mxCell>
                <mxCell id="128" style="vsdxID=63;fillColor=#2d5967;gradientColor=none;shape=stencil(pZLbDsIgEES/Zl8JZW3E51r/o0mpEBEa2nr5e0Fi2qrpRd92Z8+QCRnArJFFLYDRpnX2JK6qbCXgHhhTRgqnWj8B5oBZZZ04OtuZMu51Ecgwne0lvHCLvh0nnAcXo/eo0Od2iLBWZgDT38CETqCv4yJ4VdoZePwPHEmyGcFBSSdyp2SL/xl65avhM9Jqw0ykBQY/9NWplNaxecP7e9W8FGuK+QM=);strokeColor=none;spacingTop=-3;spacingBottom=-3;spacingLeft=-3;spacingRight=-3;points=[];labelBackgroundColor=none;rounded=0;html=1;whiteSpace=wrap;" parent="122" vertex="1">
                    <mxGeometry x="7.202380952380952" y="19.076923076923073" width="11.13095238095238" height="10.461538461538462" as="geometry"/>
                </mxCell>
                <mxCell id="129" style="vsdxID=64;fillColor=#2d5967;gradientColor=none;shape=stencil(pZJJDoMwDEVP422UxGXYU3oPJEKJmhIUoMPtm8iqCnSE7vzj920r+oBZVxetAsm73tmDOuuyrwG3IKVuauV07yvAHDCrrFN7Z4emJN0WgQzV0Z7ChAv5BOfBI/mVNKkdoUY3I3QleN/wEp2vXwSvRac/kG6YTCZwikxEH2bHLI3/M4iIJfje8HzSYsOXk34w+OIRmkobQ5kb9+ch808UUMxv);strokeColor=none;spacingTop=-3;spacingBottom=-3;spacingLeft=-3;spacingRight=-3;points=[];labelBackgroundColor=none;rounded=0;html=1;whiteSpace=wrap;" parent="122" vertex="1">
                    <mxGeometry x="20.297619047619047" y="19.076923076923073" width="11.13095238095238" height="10.461538461538462" as="geometry"/>
                </mxCell>
                <mxCell id="130" style="vsdxID=65;fillColor=#2d5967;gradientColor=none;shape=stencil(pZJJDoMwDEVP422UxGXYU3oPJEKJmhIUoMPtm8iqCnSE7vzj920r+oBZVxetAsm73tmDOuuyrwG3IKVuauV07yvAHDCrrFN7Z4emJN0WgQzV0Z7ChAv5BOfBI/mVNKkdoUY3I3QleN/wEp2vXwSvRac/kG6YTCZwikxEH2bHLI3/M4iIJfje8HzSYsOXk34w+OIRmkobQ5kb9+ch808UUMxv);strokeColor=none;spacingTop=-3;spacingBottom=-3;spacingLeft=-3;spacingRight=-3;points=[];labelBackgroundColor=none;rounded=0;html=1;whiteSpace=wrap;" parent="122" vertex="1">
                    <mxGeometry x="33.39285714285714" y="6.769230769230768" width="11.13095238095238" height="10.461538461538462" as="geometry"/>
                </mxCell>
                <mxCell id="131" style="vsdxID=66;fillColor=#2d5967;gradientColor=none;shape=stencil(pZJJDoMwDEVP422UxGXYU3oPJEKJmhIUoMPtm8iqCnSE7vzj920r+oBZVxetAsm73tmDOuuyrwG3IKVuauV07yvAHDCrrFN7Z4emJN0WgQzV0Z7ChAv5BOfBI/mVNKkdoUY3I3QleN/wEp2vXwSvRac/kG6YTCZwikxEH2bHLI3/M4iIJfje8HzSYsOXk34w+OIRmkobQ5kb9+ch808UUMxv);strokeColor=none;spacingTop=-3;spacingBottom=-3;spacingLeft=-3;spacingRight=-3;points=[];labelBackgroundColor=none;rounded=0;html=1;whiteSpace=wrap;" parent="122" vertex="1">
                    <mxGeometry x="33.39285714285714" y="19.076923076923073" width="11.13095238095238" height="10.461538461538462" as="geometry"/>
                </mxCell>
                <mxCell id="132" value="&lt;div style=&quot;&quot;&gt;&lt;p style=&quot;margin: 0px; text-indent: 0px; direction: ltr;&quot;&gt;&lt;font face=&quot;Oracle Sans&quot;&gt;Host 1&lt;/font&gt;&lt;/p&gt;&lt;p style=&quot;margin: 0px; text-indent: 0px; direction: ltr;&quot;&gt;&lt;font style=&quot;font-size: 12px;&quot; face=&quot;Oracle Sans&quot;&gt;&lt;span style=&quot;&quot;&gt;(&lt;/span&gt;&lt;/font&gt;&lt;span style=&quot;background-color: initial;&quot;&gt;10.0.0.25&lt;/span&gt;&lt;span style=&quot;font-family: &amp;quot;Oracle Sans&amp;quot;; background-color: initial;&quot;&gt;)&lt;/span&gt;&lt;/p&gt;&lt;/div&gt;" style="verticalAlign=middle;align=center;vsdxID=68;fillColor=none;gradientColor=none;shape=stencil(nZBLDoAgDERP0z3SIyjew0SURgSD+Lu9kMZoXLhwN9O+tukAlrNpJg1SzDH4QW/URgNYgZTkjA4UkwJUgGXng+6DX1zLfmoymdXo17xh5zmRJ6Q42BWCfc2oJfdAr+Yv+AP9Cb7OJ3H/2JG1HNGz/84klThPVCc=);strokeColor=none;spacingTop=-3;spacingBottom=-3;spacingLeft=-3;spacingRight=-3;points=[];labelBackgroundColor=none;rounded=0;html=1;whiteSpace=wrap;noLabel=0;container=0;" parent="117" vertex="1">
                    <mxGeometry x="2.62" y="60" width="49.76" height="20" as="geometry"/>
                </mxCell>
                <mxCell id="161" value="" style="edgeStyle=elbowEdgeStyle;elbow=horizontal;endArrow=classic;html=1;curved=0;rounded=0;endSize=8;startSize=8;fontSize=12;exitX=0.98;exitY=0.291;exitDx=0;exitDy=0;exitPerimeter=0;startArrow=none;" parent="54" source="163" edge="1">
                    <mxGeometry width="50" height="50" relative="1" as="geometry">
                        <mxPoint x="225" y="140.54" as="sourcePoint"/>
                        <mxPoint x="355" y="98.54" as="targetPoint"/>
                    </mxGeometry>
                </mxCell>
                <mxCell id="162" value="" style="edgeStyle=elbowEdgeStyle;elbow=horizontal;endArrow=classic;html=1;curved=0;rounded=0;endSize=8;startSize=8;fontSize=12;exitX=0.98;exitY=0.678;exitDx=0;exitDy=0;exitPerimeter=0;startArrow=none;" parent="54" source="165" edge="1">
                    <mxGeometry width="50" height="50" relative="1" as="geometry">
                        <mxPoint x="175" y="143.54" as="sourcePoint"/>
                        <mxPoint x="355" y="195.54" as="targetPoint"/>
                        <Array as="points"/>
                    </mxGeometry>
                </mxCell>
                <mxCell id="164" value="" style="edgeStyle=elbowEdgeStyle;elbow=horizontal;endArrow=none;html=1;curved=0;rounded=0;endSize=8;startSize=8;fontSize=12;exitX=0.98;exitY=0.291;exitDx=0;exitDy=0;exitPerimeter=0;" parent="54" source="65" target="163" edge="1">
                    <mxGeometry width="50" height="50" relative="1" as="geometry">
                        <mxPoint x="-516.3571428571429" y="283.09692307692296" as="sourcePoint"/>
                        <mxPoint x="-330" y="248.53999999999996" as="targetPoint"/>
                    </mxGeometry>
                </mxCell>
                <mxCell id="166" value="" style="edgeStyle=elbowEdgeStyle;elbow=horizontal;endArrow=none;html=1;curved=0;rounded=0;endSize=8;startSize=8;fontSize=12;exitX=0.939;exitY=0.699;exitDx=0;exitDy=0;exitPerimeter=0;" parent="54" source="61" target="165" edge="1">
                    <mxGeometry width="50" height="50" relative="1" as="geometry">
                        <mxPoint x="-516.3571428571429" y="302.1492307692307" as="sourcePoint"/>
                        <mxPoint x="-330" y="345.53999999999996" as="targetPoint"/>
                        <Array as="points">
                            <mxPoint x="245" y="154"/>
                        </Array>
                    </mxGeometry>
                </mxCell>
            </root>
        </mxGraphModel>
    </diagram>
</mxfile>